# xmcd
#
# Track frame offsets:
#	150
#	11954
#	28928
#	43302
#	56732
#	69872
#	83908
#	100144
#	112226
#	128769
#	142401
#	155896
#	173391
#	188075
#	202118
#	213885
#	226535
#	245002
#	255247
#	268197
#	283261
#	300092
#	317911
#
# Disc length: 4542 seconds
#
# Revision: 0
# Processed by: cddbd v1.4PL0 Copyright (c) Steve Scherf et al.
# Submitted via: EasyCDDAExtractor 4.6.9.1
#
DISCID=5411bc17
DTITLE=Johnny Paycheck - The Soul and The Edge - The Best Of
DYEAR=2002
DGENRE=Country
TTITLE0=Take This Job And Shove It
TTITLE1=11 Months and 29 Days
TTITLE2=I'm the Only Hell (Mama Ever Raised)
TTITLE3=Slide Off Of Your Satin Sheets
TTITLE4=She's All I Got
TTITLE5=Ragged Old Truck
TTITLE6=Colorado Cool Aid
TTITLE7=Fifteen Beers
TTITLE8=I've Seen Better Days
TTITLE9=Someone To Give My Love To
TTITLE10=My Part Of Forever
TTITLE11=Yesterday's News Just Hit Home Today
TTITLE12=(Stay Away From) The Cocaine Train (live)
TTITLE13=Me And The I.R.S. (live)
TTITLE14=The Feminine Touch
TTITLE15=You Better Move On (Duet w-George Jones)
TTITLE16=I Did The Right Thing
TTITLE17=When I Had A Home to Go Home To
TTITLE18=Barstool Mountain
TTITLE19=I Can See Me Lovin' You Again
TTITLE20=Old Violin
TTITLE21=All Night Lady
TTITLE22=The Outlaw's Prayer
EXTD=
EXTT0=
EXTT1=
EXTT2=
EXTT3=
EXTT4=
EXTT5=
EXTT6=
EXTT7=
EXTT8=
EXTT9=
EXTT10=
EXTT11=
EXTT12=
EXTT13=
EXTT14=
EXTT15=
EXTT16=
EXTT17=
EXTT18=
EXTT19=
EXTT20=
EXTT21=
EXTT22=
PLAYORDER=
